<svg xmlns="http://www.w3.org/2000/svg" width="24" height="22.145" fill="#ffffff" viewBox="0 0 24 22.145"><path d="M21.693 15.535L24 4H6.446L5.59 0H0v2h3.972l2.832 13.212c-1.632.298-2.874 1.722-2.874 3.436 0 1.928 1.57 3.496 3.498 3.496 1.928 0 3.497-1.568 3.497-3.496 0-1.064-.173-2.006-.924-2.648h8c-.75.643-1.36 1.584-1.36 2.648 0 1.928 1.567 3.496 3.495 3.496 1.93 0 3.498-1.568 3.498-3.496 0-1.365-.795-2.538-1.94-3.113zM21.56 6l-1.6 8H8.59L6.874 6H21.56zM7.43 20.444c-.99 0-1.797-.806-1.797-1.796 0-.992.807-1.798 1.798-1.798.99 0 1.797.806 1.797 1.798 0 .99-.806 1.796-1.796 1.796zm12.705 0c-.99 0-1.797-.806-1.797-1.796 0-.992.807-1.798 1.797-1.798.99 0 1.797.806 1.797 1.798 0 .99-.806 1.796-1.797 1.796z"/></svg>