<svg xmlns="http://www.w3.org/2000/svg" width="21.956" height="19.672" viewBox="0 0 21.956 19.672"><path fill="#ea0093" d="M16.956 0C11.89 0 11 6 11 6c0 .86-.81-6-5-6-3.403 0-6 2.433-6 5.837 0 4.174 3.732 7.576 9.442 12.626l1.536 1.21 1.537-1.21c5.708-5.05 9.44-8.29 9.44-12.463 0-3.404-1.595-6-5-6zm-6.098 17.406s-8.853-7.25-8.853-10.844c0-4 1.713-4.55 3.403-4.55 2.247 0 3.624 3.356 3.63 3.38L10 8h2l.83-2.608c.04-.12 1.092-3.376 4.126-3.392 1.638 0 3.17 1.406 3.17 4.25 0 4-9.268 11.156-9.268 11.156z"/></svg>